<?xml version="1.0" encoding="UTF-8"?><svg id="Layer_1" xmlns="http://www.w3.org/2000/svg" xmlns:xlink="http://www.w3.org/1999/xlink" viewBox="0 0 269 314.08"><defs><style>.cls-1{fill:#fff;}.cls-2{fill:none;stroke:#231f20;stroke-miterlimit:10;stroke-width:3px;}.cls-3{fill:url(#linear-gradient);}</style><linearGradient id="linear-gradient" x1="56.67" y1="252.58" x2="231.33" y2="77.93" gradientTransform="matrix(1, 0, 0, 1, 0, 0)" gradientUnits="userSpaceOnUse"><stop offset="0" stop-color="#ebd2e5"/><stop offset=".02" stop-color="#d8bdda"/><stop offset=".07" stop-color="#b89bc8"/><stop offset=".12" stop-color="#9f81ba"/><stop offset=".17" stop-color="#8e6eaf"/><stop offset=".23" stop-color="#8362a9"/><stop offset=".28" stop-color="#805fa8"/><stop offset=".67" stop-color="#3d6db4"/><stop offset=".89" stop-color="#0f1f42"/><stop offset="1" stop-color="#16244c"/></linearGradient></defs><path class="cls-3" d="M180.49,296.79c-1.08-3.12-2.81-5.22-3.81-6.23,.29-.14,.58-.28,.85-.43,0,0,2.81-2.11,1.67-4.57-.99-2.12-2.04-3.33-3.89-3.51V67.94s.45-2.36-1.98-5.2v-3.21s2.43-11.83-5.3-15.59c0,0-1.97-1.38-6.17-2.78l-.08-32.4s-4.44-7.77-17.55-7.56v-.04l-.32,.04c-15.05,.58-17.55,7.56-17.55,7.56l-.08,32.4c-4.2,1.4-6.17,2.78-6.17,2.78-7.74,3.76-5.3,15.59-5.3,15.59v3.18c-2.43,2.84-1.98,5.21-1.98,5.21v214.15c-1.85,.18-2.91,1.38-3.89,3.51-1.14,2.46,1.67,4.57,1.67,4.57,.28,.15,.56,.29,.85,.43-.99,1.01-2.72,3.11-3.81,6.23-1.58,4.57,1.49,8.26,1.49,8.26,0,0,10.34,9.22,34.92,8.58,24.59,.64,34.92-8.58,34.92-8.58,0,0,3.08-3.69,1.49-8.26Z"/><g><path class="cls-2" d="M180.09,295.7c-.86-2.49-2.14-4.33-3.13-5.48-8.7,4.51-23.59,5.13-33.29,4.99-9.7,.14-24.59-.48-33.29-4.99-.99,1.16-2.26,2.99-3.13,5.48-1.58,4.57,1.49,8.26,1.49,8.26,0,0,10.34,9.22,34.92,8.58,24.59,.64,34.92-8.58,34.92-8.58,0,0,3.08-3.69,1.49-8.26Z"/><path class="cls-2" d="M176.96,290.22c.06-.03,.12-.06,.17-.09,0,0,2.81-2.11,1.67-4.57-.99-2.12-2.04-3.33-3.89-3.51v.16c-14.47,3.87-26.5,3.9-31.42,3.69v-.02c-5.12,.19-16.93,.08-31.07-3.7v-.13c-1.85,.18-2.9,1.38-3.89,3.51-1.14,2.46,1.67,4.57,1.67,4.57,.06,.03,.12,.06,.17,.09"/><path class="cls-2" d="M143.51,38.85c.05,0,.11,0,.16,0,.05,0,.11,0,.16,0h0c7.93,.24,13.74,1.55,17.63,2.84l-.08-32.4s-4.44-7.77-17.55-7.56v-.04l-.32,.04c-15.05,.58-17.55,7.56-17.55,7.56l-.08,32.4c3.89-1.29,9.7-2.6,17.63-2.83h0Z"/><path class="cls-2" d="M125.87,41.65v.04c-4.19,1.4-6.16,2.78-6.16,2.78-7.74,3.76-5.3,15.59-5.3,15.59v2.09c3.05-3.57,10.66-7.89,29.44-9.23v.06c18.53,1.37,26.06,5.66,29.09,9.2v-2.12s2.43-11.83-5.3-15.59c0,0-1.97-1.38-6.17-2.78v.5"/><path class="cls-2" d="M173.97,282.05c.34-.02,.65-.02,.94,0V67.39s.45-2.36-1.98-5.2v-.3"/><path class="cls-2" d="M114.4,62.98v-.83c-2.43,2.84-1.98,5.21-1.98,5.21v214.7c.29-.03,.61-.03,.94,0"/></g><path d="M92.95,54.65c1.72,1.24,3.46,2.47,5.17,3.74,.64,.47,1.2,1.05,1.81,1.58,.39,.34,.33,.75,.23,1.2-.95,4.56-2.63,8.89-4.25,13.23-.13,.36-.26,.72-.42,1.16,1.4-.35,2.71-.71,4.03-1.02,2.95-.69,5.94-1.02,8.96-1.24,2.87-.21,5.72-.2,8.56,.2,3.41,.49,6.78,1.13,9.87,2.76,2.97,1.56,5.62,3.48,7.19,6.56,.02,.03,.08,.03,.23,.1,0-.83,.04-1.62-.01-2.4-.05-.69,.16-1.18,.64-1.69,1.35-1.43,2.62-2.93,3.91-4.4,.49-.56,.95-.89,1.84-.84,1.68,.1,3.37-.1,5.06-.17,.09,0,.19-.01,.27-.02,3.89-.1,7.78-.21,11.66-.31,.4-.01,.83,.02,1.2,.15,.66,.22,.68,.86,.7,1.41,.04,.87,.01,1.74,.01,2.75,1.94-1.49,3.65-2.89,5.45-4.16,2.28-1.61,4.6-3.23,7.31-4.01,5.11-1.48,10.33-2.17,15.67-1.69,2.96,.27,5.84,.81,8.6,1.94,3.68,1.51,6.52,4.01,8.62,7.38,.25,.41,.5,.82,.76,1.26,.69-.97,1.35-1.93,2.05-2.87,1.78-2.37,3.7-4.59,6.04-6.45,3.57-2.82,7.65-4.22,12.15-4.52,4.84-.33,9.43,.54,13.74,2.79,2.5,1.31,4.74,2.97,6.55,5.14,2.47,2.95,3.76,6.4,4.06,10.22,.16,2.03,.27,4.07,.35,6.1,.04,1.19-.02,2.38-.08,3.57-.03,.64-.3,1.13-.97,1.35-.32,.1-.62,.29-.9,.49-1.21,.83-2.45,1.62-3.6,2.53-2.11,1.66-4.43,2.71-7.07,3.26-4.96,1.03-9.89,2.27-14.83,3.41-.66,.15-1.34,.26-2.08,.4,.57,1.14,1.3,2.03,2.4,2.59,1.79,.93,3.71,1.11,5.67,1,6.16-.33,11.57-2.89,16.89-5.7,.52-.27,.94-.73,1.43-1.05,.3-.2,.75-.51,.97-.4,.28,.14,.55,.62,.56,.96,.08,2.72,.13,5.45,.11,8.17-.02,2.43-.15,4.86-.19,7.29-.02,.96-.35,1.72-1.14,2.22-1.22,.76-2.47,1.48-3.73,2.16-.83,.46-1.71,.84-2.61,1.28,3.77,2.94,5.9,6.82,6.83,11.38,.8,3.92,.63,7.83-.24,11.72-1.02,4.59-2.78,8.88-5.12,12.95-1.12,1.95-2.62,3.57-4.28,5.07-1.82,1.65-4.11,2.25-6.39,2.84-3.82,.99-7.7,1.5-11.63,1.08-1.73-.18-3.43-.74-5.14-1.14-.24-.05-.47-.16-.88-.31v17.17h.66c3.73-.03,7.38,.37,10.92,1.69,2.36,.88,4.25,2.29,5.82,4.2,.23,.28,.46,.56,.58,.7,2.04-1.03,3.95-2.16,5.99-3,4.56-1.86,9.37-2.21,14.23-2.06,.84,.03,1.71,0,2.53,.14,2.76,.45,5.56,.75,8.08,2.13,1.05,.57,1.19,.81,1.1,1.98-.23,2.95-.41,5.9-.62,8.84-.19,2.86-.37,5.72-.56,8.57-.04,.65-.47,.95-1.13,.84-2.16-.37-4.32-.72-6.48-1.1-.31-.05-.61-.2-.87-.37-1.85-1.22-3.65-2.53-5.55-3.67-2.43-1.44-5.04-1.56-7.67-.6-1.28,.46-2.28,1.26-2.59,2.7-.15,.74,.04,1.37,.62,1.85,1.31,1.08,2.65,2.12,3.93,3.22,2.59,2.21,5.68,3.57,8.64,5.14,2.92,1.55,5.74,3.24,8.35,5.26,4.13,3.18,6.54,7.39,7.54,12.45,.6,3.04,.66,6.1,.04,9.14-.62,3.04-2.23,5.58-4.34,7.74-5.78,5.93-12.68,9.85-20.89,11.3-2.3,.4-4.62,.27-6.93,.12-2.97-.2-5.93-.46-8.89-.8-1.65-.19-3.3-.51-4.92-.92-3.32-.84-6.62-1.78-9.92-2.69-.99-.27-1.32-.66-1.35-1.72-.12-4.26-.21-8.52-.32-12.78,0-.29,0-.58,0-.9-3.46-.11-6.68-.86-9.74-2.56-.04,.39-.11,.72-.1,1.05,.11,3.16,.22,6.32,.35,9.48,.16,3.68,.36,7.37,.5,11.05,.06,1.55-.27,1.86-1.79,1.95-5.28,.31-10.57,.58-15.84,.98-.87,.07-1.34-.21-1.89-.72-1.07-1-2.24-1.91-3.24-2.96-.4-.43-.49-1.15-.76-1.85-.96,.07-2.11,.13-3.26,.23-.96,.08-1.92,.25-2.89,.26-.25,0-.6-.41-.71-.71-.19-.49-.22-1.03-.29-1.43-2.01,.68-3.93,1.42-5.91,1.96-1.49,.4-3.06,.48-4.57,.82-1.08,.25-2.11,.77-3.19,1.01-1.42,.33-2.88,.51-4.32,.75-2.16,.37-4.24-.1-6.31-.58-.47-.11-.66,.01-.85,.38-.46,.86-.93,1.71-1.4,2.56-.25,.45-.61,.66-1.16,.68-5.11,.14-10.21,.3-15.32,.48-.62,.02-.76-.35-.82-.78-.13-.9-.22-1.81-.26-2.72-.16-3.63-.28-7.26-.44-10.89-.15-3.38-.32-6.77-.49-10.15,0-.13-.04-.27-.08-.55-.22,.29-.37,.48-.5,.68-2.68,4.03-5.34,8.07-8.03,12.09-.59,.88-1.36,1.57-2.2,2.25-1.42,1.15-3.21,1.32-4.69,2.21-.49,.29-.81,.02-1.05-.42-.22-.42-.42-.86-.7-1.24-3.54-4.81-7.09-9.62-10.64-14.43-.03-.03-.07-.05-.21-.16,0,.37,0,.67,0,.97,.17,6.41,.34,12.83,.54,19.24,.02,.64-.16,1.08-.65,1.48-1.22,1.01-2.41,2.04-3.6,3.07-.46,.4-.95,.51-1.57,.49-1.69-.06-3.38-.02-5.08,0-3.69,.03-7.38,.06-11.07,.08-.94,0-1.11-.17-1.11-1.12,.04-7.84,.03-15.67,.14-23.51,.17-12.69,.44-25.38,.66-38.08v-.87c-.24,.08-.41,.13-.57,.2-4.43,1.92-8.98,3.41-13.75,4.14-3.92,.6-7.85,.44-11.76-.25-2.72-.47-5.32-1.3-7.84-2.42-.66-.29-.92-.69-.92-1.41,.03-4.63,.09-9.26,.02-13.89-.04-2.54-.26-5.08-.48-7.61-.19-2.17-.14-2.3,1.97-2.7,.78-.15,1.54-.44,2.32-.56,.28-.04,.68,.11,.9,.31,4.48,4.11,9.8,6.69,15.53,8.5,2.89,.92,5.85,1.48,8.91,1.4,1.81-.05,3.53-.44,5.13-1.33,.95-.53,1.5-1.4,1.97-2.31,.13-.24,.16-.62,.06-.87-.41-1.06-.77-2.17-1.38-3.12-2.34-3.62-5.77-6-9.41-8.15-2.74-1.61-5.43-3.31-8.14-4.99-2.44-1.51-4.52-3.42-6.29-5.68-.21-.26-.63-.44-.98-.49-2.37-.4-4.74-.81-7.12-1.09-1.12-.13-1.74-.6-2.22-1.6-7.03-14.49-14.18-28.92-21.11-43.46-4.94-10.37-9.6-20.88-14.39-31.32-1.99-4.34-3.99-8.67-5.98-13.01-.37-.77-.64-1.57-.94-2.36v-.69c.41-.15,.81-.37,1.23-.43,4.61-.72,9.23-1.41,13.83-2.13,3.09-.48,6.09-.33,8.99,.96,1.53,.68,3.05,1.39,4.65,1.84,2.25,.64,3.5,2.17,4.43,4.14,.14,.29,.28,.58,.41,.87,5.68,12.84,11.37,25.69,17.05,38.53,.41,.93,.84,1.85,1.3,2.86,.1-.25,.17-.4,.22-.54,4.82-12.65,9.62-25.31,14.45-37.97,1.96-5.12,3.97-10.22,5.94-15.33,.43-1.1,1.13-1.76,2.33-1.9,4.77-.54,9.55-1.08,14.32-1.65,1.22-.14,2.43-.35,3.65-.53h.14Zm47.68,96.88c.88-.07,1.79-.16,2.7-.2,4.56-.15,9.11-.29,13.67-.43,1.96-.06,1.81,0,1.78-1.79-.11-6.53-.31-13.05-.45-19.58-.05-2.31-.04-4.63-.04-6.94,0-.71,.44-1.01,1.1-.74,.56,.24,1.11,.54,1.62,.89,5.41,3.69,11.61,4.78,17.95,5.31,2.95,.25,5.89-.22,8.82-.68,4.84-.76,9.04-2.76,12.27-6.52,2.23-2.6,3.96-5.55,5.25-8.72,2.8-6.88,3.99-14,3.2-21.42-.5-4.63-1.76-8.99-4.23-12.99-2.48-4.01-5.99-6.61-10.53-7.82-4.8-1.28-9.65-1.34-14.57-.75-5.29,.64-9.98,2.54-14.14,5.84-1.7,1.36-3.37,2.75-5.08,4.09-.27,.21-.8,.38-1.03,.25-.27-.15-.46-.64-.49-1-.1-1.27-.13-2.54-.18-3.97-5.88,.22-11.68,.43-17.59,.65v76.51h-.02Zm-30.19,101.59c.43-.56,.82-1.01,1.13-1.51,3.32-5.28,6.66-10.56,9.95-15.87,1.48-2.39,2.84-4.85,4.3-7.26,.17-.28,.58-.56,.88-.56,.49-.02,.52,.48,.56,.87,.01,.11,.02,.23,.02,.34,.19,4.21,.38,8.42,.57,12.63,.29,6.39,.58,12.77,.87,19.16,.02,.31,.07,.62,.11,.93,4.8-.23,9.52-.45,14.2-.67v-4.48c-.05-14.19-.14-28.37-.13-42.55,0-6.6,.34-13.19-.05-19.79-.07-1.2-.11-2.41-.16-3.65-.16-.01-.27-.03-.38-.03-2.38,.13-4.76,.22-7.13,.39-1.9,.13-3.78,.34-5.67,.52-1.04,.1-1.73,.59-2.19,1.59-.98,2.14-1.99,4.27-3.13,6.33-2.75,4.96-5.55,9.89-8.38,14.8-1.69,2.93-3.46,5.81-5.22,8.7-.58,.94-1.18,.87-1.71-.12-.27-.51-.57-.99-.86-1.48-1.55-2.66-3.1-5.32-4.65-7.99-.63-1.08-1.32-2.14-1.86-3.28-2.5-5.24-4.94-10.5-6.98-15.94-.16-.43-.39-.54-.81-.55-1.6-.02-3.2-.07-4.81-.12-.4-.01-.8-.09-1.14-.14-1.52,1.13-3,2.33-4.58,3.37-1.58,1.05-3.25,1.96-4.91,2.89-.41,.23-.44,.5-.44,.89-.15,10.49-.33,20.99-.47,31.48-.14,10.06-.25,20.11-.37,30.17,0,.2,.02,.4,.04,.58h15.78c-.05-.66-.12-1.25-.13-1.85-.1-8.5-.19-17-.29-25.5-.01-.86-.1-1.73-.12-2.59-.02-.68,.02-1.37,.04-2.05,.02-.51-.11-1.12,.53-1.35,.64-.22,.87,.33,1.17,.73,.03,.04,.04,.08,.07,.11,3.62,5.18,7.21,10.37,10.87,15.52,1.74,2.46,3.61,4.83,5.48,7.31h0ZM1.6,66.79c.25,.59,.45,1.12,.68,1.63,5.33,11.75,10.5,23.58,16.03,35.24,8.33,17.54,16.91,34.96,25.37,52.43,.17,.35,.38,.46,.74,.42,1.46-.16,2.91-.31,4.37-.46,.37-.04,.74-.12,1.14-.19-1.28-2.65-1.96-5.38-2.07-8.21-.15-3.92,1.08-7.49,3.28-10.7,3.28-4.78,7.71-8.16,13.04-10.36,.59-.24,.9-.59,1.12-1.16,2.03-5.16,4.03-10.34,6.15-15.47,2.65-6.41,5.53-12.74,7.65-19.36,.13-.41,.19-.9,.11-1.32-.32-1.81-.21-3.47,1.25-4.8,.7-.64,1.07-1.47,1.42-2.35,2.72-6.81,5.5-13.59,8.23-20.39,.72-1.79,1.36-3.62,2.05-5.48-.21,0-.29,0-.38,0-2.77,.29-5.55,.58-8.33,.9-2.86,.33-5.72,.74-8.58,1.04-.7,.08-.91,.48-1.11,1.01-4.93,12.83-9.9,25.65-14.8,38.5-3.32,8.7-6.53,17.45-9.81,26.17-.13,.35-.49,.74-.82,.86-.19,.07-.66-.34-.82-.64-4.98-9.13-9.94-18.27-14.25-27.74-3.43-7.55-6.8-15.12-10.2-22.68-1.25-2.77-2.52-5.52-3.74-8.31-.43-.97-.36-1.01-1.45-.87-3.45,.44-6.9,.86-10.34,1.34-1.96,.27-3.91,.65-5.95,.99h0Zm83.01,35.8c1.68-1.67,3.11-3.31,4.75-4.68,4.77-3.98,10.14-6.63,16.51-6.67,.69,0,1.46,.1,2.06,.41,1.49,.75,2.03,1.84,1.13,3.28-.5,.8-1.17,1.59-1.95,2.09-2.64,1.68-5.3,3.3-8.28,4.41-4.88,1.82-9.57,4.04-13.78,7.17-4.6,3.42-7.65,7.82-8.57,13.55-.09,.57-.11,1.16-.17,1.8,1.45,0,2.76-.05,4.06,.01,2.57,.13,5.1,.56,7.47,1.63,.25,.11,.51,.25,.67,.45,.97,1.18,1.86,2.43,2.89,3.56,.66,.73,.97,1.49,.99,2.46,.06,3.9,.15,7.79,.24,11.68,.02,.95,.51,1.6,1.51,1.47,.99-.14,1.98-.37,2.9-.74,2.92-1.16,5.43-3.02,7.93-4.88,1.98-1.48,3.92-3.02,5.91-4.48,1.05-.77,1.69-.52,1.95,.76,.33,1.63,.62,3.28,.86,4.93,.07,.5,.29,.69,.72,.72,.75,.04,1.51,.11,2.27,.08,3.18-.1,6.37-.2,9.55-.37,2.09-.11,4.18-.32,6.33-.49,0-1.53,.03-2.97,0-4.41-.16-5.7-.29-11.41-.55-17.11-.23-5.26-.56-10.52-.95-15.77-.46-6.22-1.68-12.33-3.47-18.3-1.35-4.51-4.26-7.65-8.73-9.16-3.73-1.26-7.63-1.35-11.52-1.24-1.07,.03-2.14,.21-3.2,.35-5.89,.8-11.46,2.57-16.59,5.59-2.45,1.43-4.76,3.04-6.44,5.38-.28,.4-.53,.96-.48,1.42,.13,1.29,.31,2.59,.66,3.84,1.05,3.71,2.19,7.4,3.34,11.24v.02Zm59.6,116.72c2.46-2.43,4.86-4.95,7.45-7.28,2.89-2.59,6.22-4.44,10.18-4.84,1.93-.2,3.8,.08,5.43,1.25,1.57,1.13,1.92,3.34,.72,4.78-1.2,1.44-2.61,2.64-4.36,3.38-1.01,.43-2.03,.82-3.05,1.24-3.55,1.47-7.13,2.86-10.63,4.43-1.53,.69-2.92,1.72-4.35,2.61-.47,.29-.89,.64-1.34,.96-.14,.19-.14,.48-.13,.78,.08,9.55,.15,19.11,.22,28.66,0,.93,.42,1.53,1.3,1.83,3.57,1.18,7.19,1.48,10.88,.53,4.48-1.15,8.46-3.29,12.23-5.9,.64-.44,1.26-.92,1.92-1.33,.78-.5,1.3-.26,1.48,.64,.1,.54,.17,1.08,.25,1.63,.14,.98,.27,1.97,.43,3.09,2.87-.33,5.62-.65,8.37-.95,2.74-.31,5.53,0,8.25-.7,.25-4.59,.49-9.12,.73-13.65,.39-7.53,.81-15.06,.25-22.59-.19-2.6-.5-5.19-1.24-7.71-1-3.45-2.27-6.72-5.25-9.03-.57-.44-1.08-.95-1.63-1.4-1.53-1.26-3.19-2.29-5.01-3.09-3.23-1.42-6.62-2.23-10.11-2.69-3.49-.46-6.98-.5-10.46,.19-4.36,.86-8.46,2.33-12.07,4.99-.16,.11-.28,.39-.28,.6-.07,6.3-.13,12.6-.18,18.9v.68h0Zm-56.35-70.29c.04-.09,.08-.12,.08-.16-.07-3.14-.12-6.28-.23-9.41-.15-4.05-.35-8.1-.51-12.15-.02-.38-.13-.59-.49-.7-1.04-.29-2.04-.69-3.1-.87-6.48-1.1-12.77-.29-18.84,2.11-4.74,1.87-8.71,4.84-11.8,8.92-4.42,5.85-4.96,12.15-1.63,18.62,1.95,3.79,4.81,6.9,8.5,9.17,3.16,1.93,6.31,3.9,9.47,5.84,.83,.51,1.73,.9,2.53,1.45,.89,.6,1.68,1.35,2.54,1.98,2.33,1.71,4.13,3.83,5.11,6.56,.24,.66,.39,1.43,.32,2.13-.19,1.86-1.09,3.39-2.65,4.46-3.31,2.28-6.96,3.65-10.98,3.92-4.53,.31-8.89-.57-13.06-2.32-4.15-1.74-7.92-4.02-10.3-8.07-.02-.04-.1-.04-.07-.03,.09,2.71,.25,5.43,.26,8.16,.02,3.94-.06,7.88-.1,11.82,0,.33,0,.58,.39,.76,5.84,2.63,11.98,3.37,18.26,2.51,6.28-.86,12.2-2.98,17.73-6.11,3.62-2.05,7-4.41,9.78-7.57,3.24-3.69,4.27-7.94,3.48-12.7-.66-4.04-2.72-7.4-5.51-10.23-3.61-3.69-7.63-6.94-12.09-9.57-2.52-1.49-5.15-2.78-7.71-4.21-2.08-1.16-3.8-2.74-4.88-4.89-1.17-2.33-1.13-4.66,.36-6.89,2.55-3.83,7.35-5.04,11.5-4.28,2.5,.46,4.68,1.81,6.81,3.15,1.49,.94,2.74,2.14,3.69,3.63,.81,1.28,1.63,2.54,2.44,3.81,.24,.37,.46,.76,.7,1.16h0Zm111.79,10.77c.07-2.78-.23-5.78-.98-8.72-1.9-7.56-6.04-13.34-13.3-16.62-3.32-1.5-6.74-2.4-10.43-2.18-2.72,.16-5.23,1.06-7.76,1.91-2.09,.7-4.07,1.64-5.93,2.83-.84,.54-1.42,1.16-1.22,2.27,.11,.58,.08,1.19,.08,1.78,0,3.09,.03,6.19-.02,9.28-.02,1.21-.51,1.66-1.73,1.85-.29,.05-.59,.05-.89,.06-2.5,.07-4.99,.14-7.49,.17-.5,0-.75,.17-.9,.63-.23,.74-.56,1.46-.74,2.21-.67,2.92-.77,5.89-.58,8.87,.39,6.43,2.58,12.08,7.06,16.76,3.35,3.5,7.17,6.26,12.05,7.2,1.48,.28,2.98,.49,4.45,.8,5.84,1.26,11.24-.14,16.37-2.8,3.9-2.03,6.59-5.35,8.48-9.26,2.57-5.29,3.53-10.93,3.46-17.04h0Zm12.5-37.11c-.3,0-.48-.01-.66,0-3.77,.24-7.54,.49-11.31,.71-.57,.03-.58,.35-.57,.78,.06,8.07-.02,16.13,.6,24.18,.09,1.15-.07,2.32,.03,3.47,.18,2.05,.57,4.08,.69,6.13,.2,3.32,.16,6.68-.62,9.91-.76,3.17-.9,6.34-.85,9.56,.05,3.32,.02,6.64,.03,9.97,0,.24,.03,.48,.04,.77,1.98-1.7,4.21-2.83,6.58-3.59,2.36-.75,4.8-1.26,7.3-1.9v-.71l.15-16.15c0-.21,0-.41,0-.62,.02-.54,.32-.89,.83-.93,.46-.03,.94,.04,1.4,.16,1.56,.41,3.09,1.07,4.68,1.26,5.02,.63,9.9-.22,14.66-1.8,2.96-.98,4.93-3.23,6.54-5.73,2.57-3.98,4.31-8.35,5.38-12.98,1.02-4.4,1.16-8.81-.14-13.17-1.6-5.42-4.91-9.28-10.39-11.08-7.13-2.34-13.67-.82-19.81,3.1-1.07,.69-1.97,1.64-2.99,2.41-.28,.21-.76,.35-1.1,.28-.5-.1-.52-.59-.5-1.07,.03-.96,.01-1.92,.01-2.96h.01Zm-84.17,19.84c-.01,.3-.03,.52-.03,.75-.14,6.44-.72,12.86-.41,19.3,.03,.55-.17,.94-.79,.99-.75,.07-1.5,.22-2.25,.22-3.23-.01-6.46-.07-9.69-.11-1.31-.02-1.62-.34-1.61-1.63,.03-6.19,.06-12.37,.1-18.56,0-.41-.05-.7-.45-.96-.23-.15-.33-.57-.39-.88-.13-.7-.19-1.42-.29-2.2-4.78,2.17-9.46,4.29-14.02,6.36,0,.74,0,1.35,0,1.97-.1,7.77-.22,15.53-.28,23.3-.04,5.04-.03,10.08,.03,15.12,.03,2.4,.23,4.8,.32,7.2,.03,.91-.02,.93,.89,.93,4.22-.03,8.43-.07,12.65-.1,.11,0,.22-.03,.36-.04,.02-.13,.05-.24,.06-.35,.1-2.06,.23-4.11,.27-6.17,.08-4.13,.11-8.25,.16-12.37,.01-.83,.46-1.19,1.25-1.14,1.11,.07,2.23,.08,3.35,.09,3.8,.02,7.6,.02,11.41,.03,.55,0,.84,.31,.9,.84,.03,.29,.04,.59,.05,.89,.04,4.45,.08,8.89,.11,13.34v.75c.21,0,.32,0,.43,0,4.27-.27,8.54-.54,12.82-.8,1.14-.07,1.37,.25,1.23,1.37-.07,.58-.01,1.18-.01,1.78h.36c.02-13.23-.02-26.45-.05-39.74-.57,.03-1.04,.06-1.52,.09-1.05,.07-2.1,.19-3.15,.19-.39,0-.85-.19-1.15-.44-1.09-.91-2.1-1.92-3.2-2.81-.44-.35-.67-.69-.68-1.25-.02-2.34-.07-4.68-.11-7.01,0-.2-.02-.39-.04-.7-.23,.21-.4,.32-.52,.48-.6,.83-1.48,.98-2.42,1.04-1.21,.07-2.41,.19-3.69,.28h-.02Zm120.13-40.41c-2.43,1.14-4.87,2.32-7.33,3.46-4.24,1.96-8.68,3.06-13.37,2.8-4.52-.25-6.96-2.4-8.37-7.01-.49-1.61,0-2.2,1.65-2.58,9.35-2.16,18.7-4.33,28.06-6.47,.69-.16,.95-.45,.92-1.15-.15-2.97-.17-5.95-.4-8.92-.32-4.04-1.82-7.65-4.86-10.38-7.24-6.5-15.56-7.93-24.65-4.75-3.97,1.39-6.92,4.23-9.45,7.5-1.19,1.53-2.54,2.96-3.22,4.83-.08,.21-.08,.5,0,.69,1.71,3.75,2.54,7.72,2.84,11.8,.51,7.13-.71,13.99-3.41,20.59-.22,.53-.18,.95,.14,1.39,.17,.24,.35,.48,.54,.71,1.86,2.23,4.19,3.83,6.82,4.97,1.66,.72,3.43,1.19,5.27,.99,.96-.11,1.91-.42,2.82-.76,5.92-2.2,11.7-1.84,17.4,.79,.21,.1,.55,.09,.76,0,1.92-.9,3.89-1.73,5.73-2.78,1.27-.72,2.21-1.84,2.07-3.51-.05-.57,.04-1.14,.04-1.72v-10.5Zm-37.11,136.63c.04-.54,.07-1.04,.14-1.53,.15-1.07,.44-1.24,1.53-1.34,2.53-.22,5.06-.44,7.58-.78,.89-.12,1.55,.04,2.19,.63s1.32,1.14,2.01,1.67c.14,.11,.44,.16,.58,.09,4.77-2.43,8.45-5.82,10.01-11.15,.22-.77,.12-1.08-.54-1.5-2.46-1.56-4.89-3.23-6.63-5.61-3.04-4.15-4.74-8.75-3.99-14.01,.47-3.34,1.36-6.55,3.43-9.29,1.46-1.93,3.06-3.75,4.63-5.67-.72-.95-1.59-1.92-2.9-2.5-1.21-.54-2.43-.93-3.73-1.05-2.01-.18-4.03-.63-6.01-.47-5.02,.39-9.62,2.13-13.73,5.07-1.49,1.06-2.89,2.25-4.34,3.36-.23,.17-.64,.36-.83,.27-.24-.11-.41-.5-.5-.79-.1-.32-.1-.68-.1-1.02-.01-.77,0-1.55,0-2.38-.39,.02-.66,.02-.93,.05-1.48,.13-2.96,.29-4.45,.38-3.22,.21-6.45,.38-9.67,.57-.82,.05-.94,.18-.91,1.01,.08,2.04,.15,4.08,.28,6.11,.02,.36,.25,.78,.51,1.04,1.51,1.44,3.07,2.84,3.96,4.78,1.37,2.96,2.37,6.05,2.78,9.29,.79,6.13,.77,12.29,.51,18.46-.22,5.19-.51,10.39-.77,15.58-.11,2.08-.25,4.16-.37,6.24-.04,.7-.41,1.1-1.08,1.22-.72,.13-1.44,.27-2.17,.34-1.04,.1-2.08,.14-3.18,.21,.08,1.55,.15,3.05,.22,4.69,5.41-.31,10.72-.6,16.08-.9,0-.35,.01-.57,0-.8-.11-2.5-.25-4.99-.34-7.48-.17-4.92-.31-9.84-.45-14.75-.02-.66,.54-1.03,1.18-.76,.51,.21,.98,.52,1.48,.71,1.4,.54,2.8,1.14,4.23,1.54,1.37,.38,2.8,.65,4.28,.5h0Zm9.97-1.31c0,.45-.02,.77,0,1.09,.22,3.79,.44,7.59,.69,11.38,.14,2.1,.34,4.2,.48,6.3,.03,.52,.29,.72,.74,.81,1.17,.22,2.33,.53,3.5,.67,2.93,.35,5.86,.67,8.8,.93,3.75,.33,7.5,.38,11.17-.72,6.42-1.91,12.05-5.19,16.71-10.01,2.12-2.19,3.79-4.72,4.29-7.83,.42-2.6,.38-5.21-.09-7.79-.82-4.52-2.8-8.43-6.39-11.35-1.84-1.5-3.82-2.86-5.86-4.06-3.27-1.93-6.66-3.63-9.96-5.52-1.8-1.03-3.59-2.13-5.24-3.38-2.14-1.63-3.26-5.11-.68-7.92,2.3-2.5,5.23-3.34,8.45-3.49,2.83-.14,5.32,.98,7.74,2.27,2.52,1.35,4.5,3.37,6.54,5.31,.17,.16,.34,.31,.6,.55,.07-1.07,.12-1.98,.19-2.9,.29-4.46,.6-8.91,.88-13.37,.01-.19-.1-.49-.24-.55-1.59-.76-3.2-1.49-4.99-1.63-3.86-.31-7.7-.1-11.44,.97-2.37,.68-4.81,1.29-6.99,2.39-4.53,2.29-7.55,6.05-9.3,10.83-1.02,2.77-1.55,5.61-1.19,8.55,.62,5.04,3.4,8.71,7.54,11.4,1.9,1.23,3.92,2.26,5.9,3.37,3.13,1.75,6.28,3.48,9.41,5.26,2.04,1.16,3.54,2.89,4.76,4.86,1.16,1.86,1.26,3.77,.13,5.71-.83,1.42-2.01,2.5-3.3,3.45-4.34,3.22-9.29,4.35-14.59,3.91-2.86-.23-5.69-.84-8.17-2.38-2.77-1.73-5.45-3.62-8.15-5.47-.67-.46-1.25-1.04-1.96-1.63h.01Zm-107.74-21.53c.19-.25,.26-.32,.3-.4,3.21-5.66,6.46-11.3,9.61-16.99,1.14-2.07,2.07-4.26,3.1-6.4,.31-.65,.68-1.26,1.41-1.51,.54-.19,.68-.53,.67-1.08-.07-4.44-.12-8.88-.15-13.32,0-.5-.19-.62-.65-.62-.8,0-1.6-.07-2.4-.08-1.69-.02-3.38,0-5.13,0-.02,.31-.05,.57-.05,.84-.02,1.92-.02,3.85-.07,5.77-.07,2.95-.17,5.9-.27,8.86-.03,.72-.17,1.44-.88,1.83-2.76,1.51-5.44,3.24-8.84,2.78-.81-.11-1.65,0-2.47,.01h-4.63c3.52,6.83,6.96,13.52,10.45,20.31v.02Zm-44.03-69.73c1.2,.67,2.3,1.42,3.51,1.92,1.71,.71,3.47,1.3,5.24,1.82,8.42,2.46,14.46,7.7,18.35,15.5,.06,.12,.14,.23,.21,.35l.2-.04v-19.26c-1.27,.15-2.5,.27-3.71,.46-.17,.03-.39,.4-.41,.63-.15,1.5-.27,3.01-.37,4.51-.04,.67-.37,1-1.04,1.02-.76,.03-1.52,0-2.26,.12-.58,.09-.87-.14-1.04-.63-.99-2.81-2.56-5.29-4.23-7.73-.95-1.38-2.08-2.58-3.53-3.4-1.61-.9-3.27-1.73-4.95-2.5-.65-.3-1.41-.36-2.12-.51-.38-.08-.62,.06-.78,.45-.98,2.36-1.99,4.7-3.08,7.25h0Zm156.57,92.42c2.02,1.18,3.85,2.29,5.72,3.33,.57,.32,1.22,.53,1.86,.66,3.22,.7,6.48,.58,9.69,.04,1.93-.33,3.67-1.29,4.98-2.83,1.12-1.31,1.17-2.69,.27-4.15-1.04-1.69-2.31-3.2-3.93-4.35-1.94-1.37-3.94-2.66-5.92-3.98-.62-.41-1.27-.78-1.99-1.23-.78,2.76-1.96,5.22-3.81,7.35-1.87,2.14-4.14,3.72-6.86,5.15h0Zm-105.54-80.2s.07,.05,.1,.05c1.71-.04,3.42-.07,5.13-.16,.18-.01,.47-.37,.5-.58,.12-1.48,.2-2.95,.26-4.43,.08-2.1,.11-4.2,.17-6.3,0-.14,.04-.27,.04-.41v-3.92c-.1,0-.24-.02-.37-.02-1.66,.09-3.32,.21-4.98,.25-.59,.02-.78,.15-.78,.77,.02,3.18,0,6.36-.02,9.54,0,.29-.03,.59-.03,.89v4.31h0Zm55.84,33.19c-.33,.03-.62,.04-.9,.07-1.65,.21-3.29,.45-4.94,.6-.72,.07-1.47-.14-2.19-.1-3.54,.16-6.81-.86-9.96-2.33-2.86-1.34-5.37-3.2-7.62-5.41-.16-.16-.34-.31-.65-.57v4.45c0,1.11-.24,2.09-1.19,2.84-.73,.58-1.35,1.31-2,1.98-.14,.14-.32,.32-.33,.49-.03,.88-.02,1.76-.02,2.75,9.73-5.1,19.63-5.31,29.8-1.61v-3.16h0Zm17.08-53.51c-.11-3.56-.21-6.97-.32-10.45-2.11,.75-4.11,1.57-6.19,2.17-2.05,.6-4.17,.98-6.29,1.46,4.77,1.22,9.1,3.28,12.79,6.82h0Zm-107.31-31.95c2.59-1.34,5.19-2.72,7.84-4.02,1.77-.86,3.67-1.44,5.38-2.39,2.15-1.2,4.18-2.63,6.22-4.01,.6-.4,1.13-.94,1.61-1.48,.28-.31,.4-.75,.59-1.13-.44-.07-.88-.23-1.3-.18-4.94,.64-8.9,2.93-11.69,7.1-.55,.82-1.22,1.42-2.1,1.78-1.67,.68-3.36,1.3-5.04,1.98-.31,.13-.64,.38-.8,.66-.32,.57-.52,1.2-.72,1.68h0Zm84.95,25.45c-4.05-.82-7.57-2.64-11.17-4.47,.05,.34,.12,.6,.13,.86,.05,2.35,.1,4.7,.15,7.06,0,.34,.04,.69,.06,1.09,3.33-2.21,6.96-3.48,10.83-4.53h0Zm-23.88,90.39c.34-.25,.53-.38,.7-.52,2.53-2.01,5.23-3.73,8.12-5.17,1.07-.53,2.13-1.1,3.16-1.73,.27-.16,.58-.64,.52-.88-.07-.26-.52-.5-.85-.6-.95-.31-1.9-.11-2.82,.18-2.83,.9-5.36,2.4-7.69,4.2-.47,.37-.98,.94-1.08,1.49-.18,.92-.05,1.9-.05,3.02h0Zm46.52-38.66c-.86,.8-1.67,1.56-2.54,2.38,.86,.29,1.67,.57,2.54,.88v-3.25h0Zm10.63-61.51c-.71-.59-1.27-1.06-1.84-1.54l-1.35,1.73,3.19-.2h0ZM51.2,157.93c-.41-.81-1.54-.95-2.53-.37,.86,.13,1.67,.24,2.53,.37Z"/><path class="cls-1" d="M140.64,151.52V75.02c5.91-.22,11.71-.43,17.59-.65,.06,1.42,.08,2.7,.18,3.97,.03,.36,.22,.85,.49,1,.23,.13,.76-.04,1.03-.25,1.71-1.34,3.38-2.74,5.08-4.09,4.15-3.3,8.84-5.2,14.14-5.84,4.93-.59,9.77-.53,14.57,.75,4.54,1.2,8.05,3.81,10.53,7.82,2.47,3.99,3.73,8.35,4.23,12.99,.8,7.42-.4,14.54-3.2,21.42-1.29,3.18-3.01,6.12-5.25,8.72-3.23,3.77-7.42,5.77-12.27,6.52-2.92,.46-5.87,.93-8.82,.68-6.33-.53-12.53-1.62-17.95-5.31-.51-.35-1.05-.65-1.62-.89-.65-.28-1.1,.02-1.1,.74,0,2.32,0,4.63,.04,6.94,.14,6.53,.34,13.05,.45,19.58,.03,1.79,.18,1.73-1.78,1.79-4.56,.14-9.11,.27-13.67,.43-.91,.03-1.82,.13-2.7,.2h.02Zm45.49-53.87c.09-5.56-3.18-11.31-8.19-14.6-2.35-1.55-4.87-2.21-7.63-1.72-3.23,.57-6.05,1.95-8.1,4.61-1.83,2.37-2.84,5.05-3.34,8-.74,4.4-.17,8.63,1.5,12.7,2.74,6.67,9.57,8.38,15.04,6.46,6.5-2.27,10.59-8.28,10.71-15.45h0Z"/><path class="cls-1" d="M110.44,253.12c-1.86-2.48-3.73-4.86-5.48-7.31-3.66-5.15-7.25-10.34-10.87-15.52-.03-.04-.04-.08-.07-.11-.29-.4-.53-.95-1.17-.73-.65,.22-.52,.83-.53,1.35-.02,.68-.06,1.37-.04,2.05,.02,.86,.11,1.73,.12,2.59,.1,8.5,.19,17,.29,25.5,0,.59,.08,1.18,.13,1.85h-15.78c-.01-.18-.04-.38-.04-.58,.12-10.06,.23-20.11,.37-30.17,.15-10.49,.32-20.99,.47-31.48,0-.39,.03-.66,.44-.89,1.66-.93,3.33-1.84,4.91-2.89,1.58-1.05,3.06-2.25,4.58-3.37,.35,.04,.75,.12,1.14,.14,1.6,.05,3.2,.1,4.81,.12,.42,0,.65,.13,.81,.55,2.04,5.44,4.48,10.7,6.98,15.94,.54,1.13,1.24,2.19,1.86,3.28,1.55,2.66,3.1,5.33,4.65,7.99,.29,.5,.59,.98,.86,1.48,.52,.99,1.13,1.06,1.71,.12,1.77-2.89,3.53-5.77,5.22-8.7,2.83-4.91,5.63-9.84,8.38-14.8,1.14-2.05,2.15-4.19,3.13-6.33,.46-1,1.14-1.49,2.19-1.59,1.89-.18,3.78-.39,5.67-.52,2.38-.16,4.76-.26,7.13-.39,.11,0,.22,.02,.38,.03,.05,1.24,.09,2.44,.16,3.65,.39,6.59,.06,13.19,.05,19.79-.02,14.19,.08,28.37,.13,42.55v4.48c-4.68,.22-9.4,.44-14.2,.67-.04-.32-.1-.62-.11-.93-.29-6.39-.58-12.77-.87-19.16-.19-4.21-.38-8.42-.57-12.63,0-.11-.01-.23-.02-.34-.04-.39-.08-.89-.56-.87-.31,.01-.72,.29-.88,.56-1.46,2.4-2.82,4.87-4.3,7.26-3.29,5.31-6.62,10.59-9.95,15.87-.32,.5-.71,.95-1.13,1.51h0Z"/><path class="cls-1" d="M1.6,66.79c2.03-.34,3.98-.71,5.95-.99,3.44-.48,6.89-.9,10.34-1.34,1.09-.14,1.02-.1,1.45,.87,1.22,2.78,2.5,5.54,3.74,8.31,3.4,7.56,6.77,15.13,10.2,22.68,4.31,9.47,9.28,18.61,14.25,27.74,.16,.29,.64,.7,.82,.64,.34-.11,.69-.5,.82-.86,3.29-8.72,6.5-17.47,9.81-26.17,4.89-12.84,9.86-25.66,14.8-38.5,.2-.53,.41-.93,1.11-1.01,2.87-.31,5.72-.71,8.58-1.04,2.77-.32,5.55-.6,8.33-.9,.09-.01,.17,0,.38,0-.7,1.87-1.34,3.69-2.05,5.48-2.74,6.8-5.51,13.59-8.23,20.39-.35,.88-.72,1.71-1.42,2.35-1.46,1.34-1.57,3-1.25,4.8,.08,.43,.02,.91-.11,1.32-2.12,6.62-5,12.95-7.65,19.36-2.11,5.13-4.11,10.31-6.15,15.47-.22,.57-.54,.92-1.12,1.16-5.34,2.2-9.77,5.57-13.04,10.36-2.2,3.22-3.43,6.78-3.28,10.7,.11,2.83,.79,5.56,2.07,8.21-.4,.07-.77,.15-1.14,.19-1.46,.16-2.92,.3-4.37,.46-.37,.04-.57-.07-.74-.42-8.46-17.48-17.05-34.89-25.37-52.43-5.53-11.65-10.69-23.48-16.02-35.23-.23-.52-.44-1.05-.68-1.63h0Z"/><path class="cls-1" d="M84.62,102.6c-1.15-3.84-2.29-7.53-3.34-11.24-.35-1.25-.53-2.55-.66-3.84-.04-.46,.2-1.03,.48-1.42,1.68-2.34,3.99-3.95,6.44-5.38,5.14-3.01,10.71-4.79,16.59-5.59,1.07-.14,2.14-.32,3.2-.35,3.89-.11,7.79-.03,11.52,1.24,4.47,1.51,7.38,4.65,8.73,9.16,1.78,5.98,3,12.08,3.47,18.3,.39,5.25,.72,10.51,.95,15.77,.26,5.7,.39,11.4,.55,17.11,.04,1.44,0,2.87,0,4.41-2.15,.17-4.23,.39-6.33,.49-3.18,.16-6.37,.26-9.55,.37-.75,.02-1.51-.04-2.27-.08-.44-.03-.65-.22-.72-.72-.24-1.65-.53-3.3-.86-4.93-.26-1.28-.89-1.53-1.95-.76-1.99,1.47-3.93,3.01-5.91,4.48-2.5,1.86-5.01,3.72-7.93,4.88-.92,.37-1.92,.6-2.9,.74-1,.14-1.49-.51-1.51-1.47-.09-3.9-.19-7.79-.24-11.68-.02-.97-.33-1.73-.99-2.46-1.02-1.13-1.92-2.38-2.89-3.56-.16-.2-.43-.34-.67-.45-2.37-1.08-4.89-1.5-7.47-1.63-1.3-.07-2.61-.01-4.06-.01,.06-.65,.08-1.23,.17-1.8,.93-5.74,3.97-10.14,8.57-13.55,4.21-3.12,8.9-5.35,13.78-7.17,2.97-1.11,5.63-2.74,8.28-4.41,.78-.5,1.46-1.29,1.95-2.09,.89-1.44,.36-2.53-1.13-3.28-.6-.31-1.37-.41-2.06-.41-6.38,.04-11.73,2.69-16.51,6.67-1.65,1.37-3.07,3.01-4.75,4.68v-.02Zm28.28,10.55c0-.89,.02-1.79,0-2.68-.04-1.38-.87-1.9-2.11-1.34-5.98,2.75-11.96,5.52-17.95,8.26-.99,.45-1.46,1.13-1.38,2.2,.16,2.33,1.03,4.39,2.38,6.26,1.03,1.43,2.47,2.2,4.19,2.51,1.86,.34,3.69-.01,5.53-.29,3.89-.6,6.54-2.74,8.02-6.38,1.11-2.75,1.43-5.61,1.34-8.54h0Z"/><path class="cls-1" d="M144.22,219.32v-.68c.05-6.3,.11-12.6,.18-18.9,0-.2,.12-.48,.28-.6,3.61-2.66,7.71-4.13,12.07-4.99,3.48-.68,6.96-.65,10.46-.19,3.48,.46,6.88,1.28,10.11,2.69,1.81,.8,3.48,1.83,5.01,3.09,.56,.46,1.06,.96,1.63,1.4,2.98,2.31,4.25,5.58,5.25,9.03,.73,2.52,1.04,5.1,1.24,7.71,.56,7.54,.15,15.07-.25,22.59-.24,4.53-.49,9.06-.73,13.65-2.72,.7-5.51,.39-8.25,.7-2.75,.31-5.49,.63-8.37,.95-.15-1.12-.28-2.11-.43-3.09-.08-.54-.15-1.09-.25-1.63-.18-.9-.7-1.13-1.48-.64-.65,.41-1.28,.89-1.92,1.33-3.77,2.6-7.75,4.75-12.23,5.9-3.69,.95-7.3,.65-10.88-.53-.88-.29-1.3-.89-1.3-1.83-.08-9.55-.15-19.11-.22-28.66,0-.29,0-.59,.13-.78,.45-.32,.87-.68,1.34-.96,1.44-.89,2.82-1.92,4.35-2.61,3.5-1.57,7.08-2.96,10.63-4.43,1.01-.42,2.04-.81,3.05-1.24,1.75-.74,3.16-1.93,4.36-3.38,1.2-1.45,.86-3.66-.72-4.78-1.63-1.17-3.49-1.44-5.43-1.25-3.96,.4-7.29,2.25-10.18,4.84-2.58,2.32-4.98,4.85-7.45,7.28h0Zm26.65,12.12c-.13-1.3-.21-2.6-.39-3.89-.16-1.13-.83-1.44-1.88-1.01-5.44,2.28-10.87,4.57-16.31,6.84-2.33,.97-1.86,.51-2.08,2.86-.31,3.28,1.06,5.82,3.51,7.86,.39,.33,.89,.57,1.38,.72,3.56,1.12,6.86,.38,10-1.44,2.33-1.35,3.95-3.24,4.76-5.86,.62-1.99,.98-3.99,1-6.08h0Z"/><path class="cls-1" d="M87.87,149.03c-.24-.4-.46-.79-.7-1.16-.81-1.27-1.63-2.53-2.44-3.81-.95-1.5-2.2-2.69-3.69-3.63-2.14-1.35-4.32-2.7-6.81-3.15-4.15-.76-8.94,.45-11.5,4.28-1.49,2.24-1.54,4.56-.36,6.89,1.08,2.15,2.8,3.73,4.88,4.89,2.56,1.43,5.19,2.72,7.71,4.21,4.46,2.63,8.48,5.88,12.09,9.57,2.78,2.84,4.84,6.2,5.51,10.23,.78,4.76-.25,9.01-3.48,12.7-2.78,3.16-6.15,5.53-9.78,7.57-5.53,3.13-11.44,5.25-17.73,6.11-6.28,.86-12.42,.12-18.26-2.51-.39-.17-.4-.43-.39-.76,.04-3.94,.13-7.88,.1-11.82-.02-2.72-.17-5.44-.26-8.16-.03-.01,.05-.01,.07,.03,2.38,4.04,6.15,6.32,10.3,8.07,4.17,1.75,8.52,2.63,13.06,2.32,4.02-.27,7.67-1.64,10.98-3.92,1.55-1.07,2.45-2.6,2.65-4.46,.07-.69-.08-1.46-.32-2.13-.98-2.74-2.78-4.86-5.11-6.56-.87-.64-1.66-1.38-2.54-1.98-.8-.54-1.7-.94-2.53-1.45-3.16-1.93-6.31-3.9-9.47-5.84-3.69-2.26-6.55-5.38-8.5-9.17-3.32-6.46-2.78-12.77,1.63-18.62,3.08-4.08,7.06-7.05,11.8-8.92,6.08-2.4,12.37-3.21,18.84-2.11,1.05,.18,2.07,.58,3.1,.87,.37,.1,.48,.32,.49,.7,.16,4.05,.37,8.1,.51,12.15,.11,3.14,.16,6.27,.23,9.41,0,.04-.04,.07-.08,.16h0Z"/><path class="cls-1" d="M199.66,159.81c.08,6.1-.89,11.74-3.46,17.04-1.9,3.91-4.58,7.24-8.48,9.26-5.12,2.66-10.53,4.06-16.37,2.8-1.47-.32-2.98-.52-4.45-.8-4.89-.94-8.7-3.69-12.05-7.2-4.49-4.68-6.67-10.34-7.06-16.76-.19-2.99-.09-5.95,.58-8.87,.17-.75,.5-1.47,.74-2.21,.14-.46,.4-.63,.9-.63,2.5-.03,4.99-.11,7.49-.17,.3,0,.6-.02,.89-.06,1.22-.2,1.71-.65,1.73-1.85,.05-3.09,.02-6.19,.02-9.28,0-.59,.03-1.2-.08-1.78-.21-1.12,.37-1.73,1.22-2.27,1.86-1.19,3.84-2.13,5.93-2.83,2.53-.84,5.04-1.75,7.76-1.91,3.69-.22,7.11,.69,10.43,2.18,7.26,3.28,11.4,9.06,13.3,16.62,.74,2.95,1.05,5.95,.98,8.72h0Zm-14.88-6.17c-.11-.88-.16-2.08-.43-3.24-.66-2.93-2.07-5.33-5.04-6.47-1.82-.7-3.71-.77-5.61-.47-3.38,.53-6.03,2.28-7.94,5.05-1.81,2.63-2.19,5.67-2.08,8.79,.15,4.01,1.28,7.8,2.7,11.49,1.44,3.73,3.3,7.24,6.12,10.15,.76,.78,1.19,.83,1.95,.01,.88-.95,1.75-1.94,2.45-3.03,2.61-4.08,4.6-8.46,6.1-13.06,.95-2.9,1.63-5.86,1.77-9.23h0Z"/><path class="cls-1" d="M212.16,122.69c0,1.05,.02,2.01-.01,2.96-.02,.47,.01,.96,.5,1.07,.34,.07,.81-.07,1.1-.28,1.02-.77,1.92-1.73,2.99-2.41,6.14-3.92,12.69-5.44,19.81-3.1,5.48,1.8,8.78,5.67,10.39,11.08,1.29,4.37,1.15,8.77,.14,13.17-1.07,4.63-2.81,8.99-5.38,12.98-1.61,2.5-3.59,4.75-6.54,5.73-4.76,1.58-9.65,2.43-14.66,1.8-1.59-.2-3.11-.85-4.68-1.26-.45-.12-.93-.2-1.4-.16-.51,.04-.81,.39-.83,.93,0,.21,0,.41,0,.62l-.15,16.15v.71c-2.51,.64-4.94,1.15-7.3,1.9-2.38,.76-4.6,1.89-6.58,3.59-.02-.29-.04-.53-.04-.77,0-3.32,.03-6.64-.03-9.97-.05-3.22,.09-6.39,.85-9.56,.77-3.24,.81-6.59,.62-9.91-.13-2.05-.51-4.08-.69-6.13-.1-1.15,.05-2.32-.03-3.47-.62-8.05-.54-16.11-.6-24.18,0-.43,0-.75,.57-.78,3.77-.22,7.54-.47,11.31-.71,.18-.01,.36,0,.66,0h-.01Zm-.72,21.49c-.19,3.75,1.22,6.8,3.99,9.25,3.83,3.39,10.07,3.6,13.87,.44,6.63-5.49,7.41-16.72,.28-22.42-1.35-1.08-2.78-1.89-4.48-2.26-2-.44-3.94-.6-5.69,.76-.13,.1-.28,.15-.43,.21-1.68,.76-3.15,1.83-4.2,3.32-2.24,3.2-3.18,6.83-3.34,10.68Z"/><path class="cls-1" d="M127.99,142.53c1.28-.1,2.48-.21,3.69-.28,.94-.05,1.82-.2,2.42-1.04,.11-.16,.29-.27,.52-.48,.02,.31,.03,.5,.04,.7,.04,2.34,.09,4.67,.11,7.01,0,.56,.24,.89,.68,1.25,1.1,.89,2.11,1.9,3.2,2.81,.31,.25,.76,.44,1.15,.44,1.05,0,2.1-.11,3.15-.19,.47-.03,.95-.05,1.52-.09,.04,13.29,.07,26.51,.05,39.73h-.36c0-.58-.06-1.18,.01-1.77,.14-1.12-.08-1.44-1.23-1.37-4.27,.26-8.54,.53-12.82,.8-.11,0-.22,0-.43,0v-.75c-.04-4.45-.07-8.89-.11-13.34,0-.3-.02-.59-.05-.89-.05-.53-.35-.84-.9-.84-3.8-.01-7.6-.02-11.41-.03-1.12,0-2.23-.02-3.35-.09-.8-.05-1.24,.31-1.25,1.14-.05,4.13-.08,8.25-.16,12.37-.04,2.06-.17,4.12-.27,6.17,0,.11-.04,.22-.06,.35-.14,.02-.25,.04-.36,.04-4.22,.04-8.43,.08-12.65,.1-.91,0-.86-.02-.89-.93-.09-2.4-.29-4.8-.32-7.2-.05-5.04-.07-10.08-.03-15.12,.07-7.77,.19-15.53,.28-23.3,0-.62,0-1.23,0-1.97,4.56-2.07,9.23-4.19,14.02-6.36,.1,.78,.16,1.49,.29,2.2,.05,.32,.16,.74,.39,.88,.4,.26,.45,.55,.45,.96-.04,6.19-.07,12.37-.1,18.56,0,1.3,.31,1.61,1.61,1.63,3.23,.04,6.46,.1,9.69,.11,.75,0,1.5-.15,2.25-.22,.62-.06,.82-.45,.79-.99-.32-6.44,.27-12.87,.41-19.3,0-.22,.02-.45,.03-.75h.02Z"/><path class="cls-1" d="M248.12,102.13v10.52c0,.57-.09,1.15-.04,1.72,.14,1.67-.81,2.78-2.07,3.51-1.84,1.05-3.8,1.89-5.73,2.78-.21,.1-.55,.1-.76,0-5.69-2.63-11.48-2.99-17.4-.79-.91,.34-1.86,.65-2.82,.76-1.84,.21-3.61-.27-5.27-.99-2.63-1.14-4.96-2.74-6.82-4.97-.19-.23-.37-.47-.54-.71-.32-.44-.35-.86-.14-1.39,2.7-6.6,3.92-13.46,3.41-20.59-.29-4.09-1.13-8.05-2.84-11.8-.09-.19-.08-.49,0-.69,.68-1.87,2.03-3.3,3.22-4.83,2.53-3.28,5.49-6.11,9.45-7.5,9.1-3.18,17.42-1.75,24.65,4.75,3.04,2.73,4.54,6.34,4.86,10.38,.23,2.96,.26,5.95,.4,8.92,.03,.7-.23,.99-.92,1.15-9.36,2.14-18.71,4.31-28.06,6.47-1.65,.38-2.14,.97-1.65,2.58,1.42,4.6,3.85,6.76,8.37,7.01,4.68,.26,9.13-.85,13.37-2.8,2.46-1.13,4.91-2.31,7.33-3.46v-.02Zm-18.52-25.98c-2.54,.07-4.83,.71-6.8,2.23-3.84,2.98-4.83,7.12-4.6,11.68,.09,1.81,.23,1.86,1.97,1.42,5.25-1.34,10.49-2.7,15.72-4.1,2.34-.63,2.71-1.26,2.26-3.61-.28-1.48-.52-2.99-1.45-4.25-1.78-2.4-4.27-3.33-7.1-3.37h0Z"/><path class="cls-1" d="M211.01,238.76c-1.48,.15-2.9-.12-4.28-.5-1.44-.4-2.83-1-4.23-1.54-.51-.2-.98-.5-1.48-.71-.63-.26-1.19,.1-1.18,.76,.14,4.92,.28,9.84,.45,14.75,.09,2.5,.22,4.99,.34,7.48,.01,.22,0,.45,0,.8-5.36,.3-10.67,.6-16.08,.9-.08-1.63-.15-3.13-.22-4.69,1.1-.07,2.14-.11,3.18-.21,.72-.07,1.44-.21,2.17-.34,.67-.12,1.05-.51,1.08-1.22,.12-2.08,.26-4.16,.37-6.24,.27-5.19,.56-10.39,.77-15.58,.26-6.16,.28-12.33-.51-18.46-.42-3.24-1.42-6.33-2.78-9.29-.9-1.94-2.45-3.34-3.96-4.78-.27-.25-.49-.68-.51-1.04-.13-2.03-.2-4.07-.28-6.11-.03-.83,.09-.96,.91-1.01,3.23-.19,6.45-.36,9.67-.57,1.48-.09,2.96-.26,4.45-.38,.27-.02,.54-.03,.93-.05,0,.83-.01,1.6,0,2.38,0,.34,0,.7,.1,1.02,.09,.3,.26,.68,.5,.79,.2,.09,.6-.09,.83-.27,1.46-1.11,2.86-2.29,4.34-3.36,4.11-2.94,8.71-4.68,13.73-5.07,1.98-.15,4.01,.29,6.01,.47,1.31,.12,2.52,.51,3.73,1.05,1.31,.58,2.17,1.55,2.9,2.5-1.57,1.91-3.17,3.74-4.63,5.67-2.07,2.74-2.96,5.95-3.43,9.29-.75,5.26,.95,9.85,3.99,14.01,1.74,2.38,4.16,4.04,6.63,5.61,.65,.41,.76,.73,.54,1.5-1.56,5.33-5.24,8.72-10.01,11.15-.15,.08-.45,.02-.58-.09-.69-.53-1.37-1.08-2.01-1.67-.64-.59-1.29-.75-2.19-.63-2.52,.34-5.05,.57-7.58,.78-1.1,.09-1.37,.26-1.53,1.34-.07,.49-.09,.99-.14,1.53h0Zm12.51-28.23c-.11-.97-.15-1.8-.31-2.6-1.06-5.37-4.34-8.83-9.37-10.74-1.49-.57-3.04-.53-4.6-.26-2.09,.37-3.78,1.48-5.31,2.86-3.48,3.13-5.26,7.14-5.78,11.72-.47,4.12,.35,7.97,2.79,11.39,3.14,4.4,9.29,5.74,13.87,2.88,5.67-3.53,8.08-8.96,8.7-15.25h0Z"/><path class="cls-1" d="M220.99,237.46c.71,.59,1.3,1.18,1.96,1.63,2.7,1.85,5.37,3.74,8.15,5.47,2.47,1.54,5.31,2.15,8.17,2.38,5.3,.43,10.24-.7,14.59-3.91,1.29-.96,2.47-2.03,3.3-3.45,1.13-1.94,1.02-3.85-.13-5.71-1.22-1.97-2.72-3.69-4.76-4.86-3.12-1.78-6.27-3.5-9.41-5.26-1.98-1.11-4.01-2.14-5.9-3.37-4.14-2.69-6.92-6.37-7.54-11.4-.36-2.94,.17-5.78,1.19-8.55,1.75-4.77,4.77-8.53,9.3-10.83,2.17-1.1,4.62-1.72,6.99-2.39,3.74-1.07,7.57-1.28,11.44-.97,1.79,.14,3.4,.87,4.99,1.63,.14,.07,.25,.37,.24,.55-.28,4.46-.58,8.91-.88,13.37-.06,.92-.11,1.83-.19,2.9-.26-.24-.44-.39-.6-.55-2.05-1.93-4.03-3.97-6.54-5.31-2.41-1.29-4.9-2.41-7.74-2.27-3.22,.16-6.15,1-8.45,3.49-2.58,2.81-1.46,6.29,.68,7.92,1.65,1.26,3.44,2.35,5.24,3.38,3.3,1.89,6.69,3.59,9.96,5.52,2.04,1.2,4.02,2.56,5.86,4.06,3.59,2.93,5.57,6.83,6.39,11.35,.47,2.59,.51,5.2,.09,7.79-.5,3.11-2.17,5.64-4.29,7.83-4.66,4.81-10.29,8.09-16.71,10.01-3.67,1.1-7.42,1.05-11.17,.72-2.94-.26-5.87-.57-8.8-.93-1.18-.14-2.33-.45-3.5-.67-.45-.09-.7-.29-.74-.81-.14-2.1-.34-4.2-.48-6.3-.25-3.79-.46-7.59-.69-11.38-.02-.32,0-.64,0-1.09h-.01Z"/><path class="cls-1" d="M51.2,157.93c-.86-.13-1.67-.24-2.53-.37,.99-.59,2.12-.44,2.53,.37Z"/><path d="M186.12,97.66c-.11,7.17-4.21,13.18-10.71,15.45-5.47,1.91-12.3,.21-15.04-6.46-1.67-4.07-2.24-8.29-1.5-12.7,.5-2.95,1.5-5.64,3.34-8,2.05-2.65,4.87-4.03,8.1-4.61,2.76-.49,5.28,.17,7.63,1.72,5.01,3.3,8.27,9.04,8.19,14.6h0Zm-25.85,.28c.07,1.41,.05,2.83,.22,4.23,.13,.96,.49,1.91,.8,2.84,.13,.4,.28,.88,.58,1.12,1.48,1.2,2.86,2.53,4.73,3.18,.9,.32,1.78,.57,2.74,.62,1.12,.07,2.19-.16,3.23-.49,.76-.24,1.62-.35,2.25-.8,1.27-.92,2.59-1.87,3.55-3.08,2.78-3.51,3.5-7.62,2.92-11.98-.39-2.92-1.51-5.59-3-8.11-.92-1.55-2.42-2.23-4.1-2.5-.99-.16-2.01-.14-3.01-.17-.47-.02-.97-.05-1.42,.07-4.14,1.07-7,3.6-8.46,7.63-.87,2.4-1.03,4.9-1.02,7.43h0Z"/><path d="M112.89,113.14c.09,2.93-.23,5.8-1.34,8.54-1.47,3.64-4.13,5.78-8.02,6.38-1.83,.28-3.66,.63-5.53,.29-1.72-.31-3.16-1.08-4.19-2.51-1.35-1.87-2.22-3.93-2.38-6.26-.07-1.06,.39-1.75,1.38-2.2,5.99-2.74,11.97-5.5,17.95-8.26,1.24-.57,2.07-.05,2.11,1.34,.03,.89,0,1.79,0,2.68h0Zm-2.02-2.48c-4.06,1.85-7.99,3.65-11.91,5.45-.15,.07-.32,.28-.33,.43-.15,2.37-.1,4.72,.93,6.93,.84,1.8,2.29,2.5,4.22,2.01,2.08-.52,3.69-1.8,5.04-3.4,.93-1.1,1.71-2.32,2.07-3.75,.64-2.53-.07-5.05-.02-7.68h0Z"/><path d="M170.87,231.44c-.02,2.09-.39,4.09-1,6.08-.81,2.62-2.44,4.51-4.76,5.86-3.14,1.82-6.44,2.57-10,1.44-.49-.15-.99-.39-1.38-.72-2.45-2.03-3.83-4.58-3.51-7.86,.22-2.35-.25-1.89,2.08-2.86,5.44-2.27,10.88-4.56,16.31-6.84,1.05-.44,1.71-.13,1.88,1.01,.19,1.29,.27,2.59,.39,3.89h0Zm-12.56,3.36c.08,.77,.1,1.51,.23,2.22,.2,1.12,.75,2.03,1.95,2.28,.69,.15,1.43,.2,2.14,.15,3.04-.25,5.07-1.83,6.05-4.73,.69-2.05,.82-4.16,.58-6.3-.06-.55-.39-.52-.76-.36-3.02,1.3-6.03,2.6-9.05,3.89-.54,.23-.94,.46-.95,1.13-.01,.59-.12,1.17-.18,1.72h0Z"/><path d="M184.78,153.65c-.14,3.37-.82,6.33-1.77,9.23-1.5,4.6-3.49,8.98-6.1,13.06-.7,1.09-1.57,2.08-2.45,3.03-.75,.82-1.18,.77-1.95-.01-2.82-2.91-4.68-6.43-6.12-10.15-1.43-3.69-2.56-7.49-2.7-11.49-.11-3.12,.27-6.16,2.08-8.79,1.91-2.77,4.56-4.52,7.94-5.05,1.91-.3,3.79-.22,5.61,.47,2.98,1.14,4.38,3.54,5.04,6.47,.26,1.16,.31,2.35,.43,3.24h0Zm-13.07,22.09c.46-.87,.8-1.57,1.19-2.24,.68-1.16,1.46-2.28,2.09-3.47,1.41-2.64,2.56-5.4,3.43-8.28,.88-2.92,1.71-5.84,1.59-8.94-.09-2.43-1.23-4.14-3.29-5.34-1.11-.65-2.32-.63-3.55-.78-2.79-.34-4.66,1.17-6.35,2.96-.6,.64-.92,1.67-1.11,2.57-.37,1.75-.73,3.53-.46,5.36,.2,1.36,.18,2.77,.49,4.1,1,4.32,2.47,8.47,4.76,12.31,.35,.59,.78,1.12,1.21,1.74h0Z"/><path d="M211.43,144.17c.17-3.85,1.1-7.49,3.34-10.68,1.05-1.5,2.52-2.57,4.2-3.32,.15-.07,.31-.11,.43-.21,1.75-1.37,3.69-1.2,5.69-.76,1.69,.37,3.13,1.17,4.48,2.26,7.13,5.71,6.35,16.93-.28,22.42-3.8,3.16-10.04,2.94-13.87-.44-2.77-2.45-4.18-5.5-3.99-9.25Zm2.13-1.95c.09,1.17,.14,2.33,.27,3.49,.27,2.33,1.46,3.93,3.75,4.64,1.53,.47,3.06,.43,4.62,.3,2.38-.19,4.28-1.29,5.77-3.08,2.77-3.34,3.46-7.16,2.51-11.34-.54-2.4-1.74-4.29-4.11-5.17-1.08-.4-2.25-.56-3.39-.78-.75-.15-1.44,.05-2.09,.47-.44,.28-.96,.45-1.38,.75-1.13,.8-2.39,1.49-3.3,2.5-2.08,2.31-2.73,5.16-2.65,8.22h0Z"/><path d="M229.6,76.15c2.82,.04,5.31,.97,7.1,3.37,.93,1.25,1.17,2.76,1.45,4.25,.45,2.35,.08,2.99-2.26,3.61-5.23,1.4-10.47,2.76-15.72,4.1-1.73,.44-1.87,.39-1.97-1.42-.22-4.56,.76-8.7,4.6-11.68,1.97-1.53,4.26-2.17,6.8-2.23h0Zm-10.2,13.98c.32,0,.39,.02,.45,0,3.7-.92,7.41-1.84,11.1-2.78,.16-.04,.37-.41,.33-.57-.43-1.58-.82-3.18-1.42-4.7-.22-.56-.87-1.08-1.44-1.35-.99-.47-2.08-.63-3.21-.36-1.72,.41-3.49,.84-4.34,2.56-.57,1.14-.86,2.45-1.12,3.71-.23,1.12-.24,2.29-.35,3.5Z"/><path d="M223.53,210.52c-.62,6.29-3.03,11.72-8.7,15.25-4.58,2.86-10.74,1.52-13.87-2.88-2.44-3.43-3.26-7.27-2.79-11.39,.52-4.58,2.3-8.59,5.78-11.72,1.53-1.37,3.22-2.49,5.31-2.86,1.56-.27,3.11-.32,4.6,.26,5.02,1.91,8.3,5.37,9.37,10.74,.16,.8,.2,1.63,.31,2.6h0Zm-23.45,1.54c0,.9-.05,1.84,.01,2.77,.09,1.32,.21,2.66,1.06,3.77,2.4,3.12,7.32,5.08,11.73,2.39,4.57-2.78,5.85-7.22,5.79-12.2-.04-2.95-1.39-5.54-2.68-8.13-.59-1.19-1.49-1.86-2.71-2.2-2.93-.81-5.55-.1-7.8,1.84-3.56,3.07-5.84,6.78-5.4,11.75h0Z"/><path d="M169.13,155c-.23-2.07,1.62-4.16,3.61-4.5,.94-.16,1.9-.44,2.82-.33,1.45,.16,2.71,1.6,2.88,3.11,.25,2.22-.41,4.16-2.06,5.71-1.08,1.02-2.49,1.51-3.81,.99-2.22-.86-3.41-2.2-3.44-4.96h0Zm7.98-.47c0-1.72-.69-2.76-1.83-3-1.68-.37-3.04,.32-4.1,1.53-1.04,1.18-.86,2.57-.25,3.87,.95,2.05,3.46,2.37,4.92,.65,.83-.98,1.23-2.13,1.26-3.04h0Z"/><path class="cls-1" d="M177.11,154.54c-.03,.92-.43,2.07-1.26,3.04-1.47,1.72-3.96,1.41-4.92-.65-.6-1.3-.79-2.7,.25-3.87,1.06-1.21,2.42-1.89,4.1-1.53,1.13,.25,1.83,1.28,1.83,3h0Z"/></svg>